<?xml version="1.0" encoding="UTF-8"?>
<svg id="Calque_2" data-name="Calque 2" xmlns="http://www.w3.org/2000/svg" height="50px" width="50px" viewBox="0 0 205.94 216.77">
  <defs>
    <style>
      .cls-1 {
        fill: #000;
      }

      .cls-1, .cls-2 {
        stroke-width: 0px;
      }

      .cls-2 {
        fill: #77af46;
      }
    </style>
  </defs>
  <g id="Calque_2-2" data-name="Calque 2">
    <path class="cls-1" d="M92.66,103.57c-1.19-.39-1.96-1.46-1.91-2.63l3.92-91.44c.18-4.03-3.3-7.38-7.67-7.38h-1.98c-4.36,0-7.84,3.35-7.67,7.37l3.66,91.55c.05,1.15-.7,2.2-1.86,2.6-4.74,1.63-7.98,9.41-7.98,17.47,0,11.55,6.64,28.99,14.84,28.99s14.83-17.44,14.83-28.99c0-8.18-3.33-15.96-8.18-17.54Z"/>
    <path class="cls-2" d="M204.94,103.27C199.22,45.69,141.76-1.78,84.14,11.12,27.57,23.46-5.81,85.4,15.59,139.37c14.09,36.16,47.71,62.72,86.64,67.85,0,0-.04,1-.04,1-62.13-2.11-113.03-63.44-100.18-125C14.14,20.34,82.21-18.2,141.47,8.68c36.93,16.12,63.92,53.95,64.47,94.57,0,0-1,.02-1,.02h0Z"/>
    <path class="cls-1" d="M40,102.32c5.12,34.26,27.77,65.09,65.25,63.06,38.56-1.82,67.99-39.61,60.82-77.43-5.41-29.59-34.01-46.75-61.9-51.47,0,0,.04-1,.04-1,27.17.72,55.81,14.67,66.85,40.66,23.1,56.23-35.28,116.75-92.12,93.29-26-11.04-39.88-39.87-39.95-67.09,0,0,1-.02,1-.02h0Z"/>
    <path class="cls-2" d="M135.85,108.39c3.1-5.79,2.68-9.14,2.35-12.96l-2.5-31.4c-.07-.9-.82-1.6-1.73-1.6h-.19c-.97,0-1.76.79-1.76,1.76l-.13,28.87c0,.97-.66,1.66-1.63,1.66h-.44c-.97,0-1.76-.79-1.76-1.76v-28.68c0-.92-.66-1.77-1.58-1.85-1.03-.09-1.89.72-1.89,1.72v28.8c0,.97-.79,1.76-1.76,1.76h-.44c-.97,0-1.76-.79-1.76-1.76v-28.68c0-.92-.66-1.77-1.58-1.85-1.03-.09-1.89.72-1.89,1.72v28.8c0,.97-.79,1.76-1.76,1.76h-.44c-.97,0-1.76-.79-1.76-1.76v-28.38c0-1.19-.96-2.15-2.15-2.15h0c-1.17,0-2.13.92-2.18,2.09l-1.49,34.05c-.14,3.1.5,6.19,1.92,8.94,2.42,4.7,6.41,9.12,10.7,11.67v.02s-2.77,92.6-2.77,92.6c-.09,2.89,2.36,5.21,5.24,4.96l3.83-.32c2.47-.21,4.33-2.33,4.22-4.8l-4.13-92.71v-.02c3.44-2.33,7.69-7.28,9.42-10.51Z"/>
  </g>
</svg>